<mxfile host="65bd71144e" pages="5">
    <diagram id="1G98EZApd0XkNLwHM3sA" name="dss">
        <mxGraphModel dx="803" dy="605" grid="1" gridSize="10" guides="1" tooltips="1" connect="1" arrows="1" fold="1" page="1" pageScale="1" pageWidth="4681" pageHeight="3300" math="0" shadow="0">
            <root>
                <mxCell id="0"/>
                <mxCell id="1" parent="0"/>
                <mxCell id="31scnzc9531WvHTzDKm4-2" value="R14" style="edgeStyle=orthogonalEdgeStyle;rounded=0;orthogonalLoop=1;jettySize=auto;html=1;entryX=0.5;entryY=0;entryDx=0;entryDy=0;fontSize=16;startArrow=classic;startFill=1;" parent="1" source="31scnzc9531WvHTzDKm4-3" target="31scnzc9531WvHTzDKm4-20" edge="1">
                    <mxGeometry relative="1" as="geometry"/>
                </mxCell>
                <mxCell id="31scnzc9531WvHTzDKm4-3" value="1. Электрочайник (Э)" style="swimlane;fontStyle=1;align=center;verticalAlign=top;childLayout=stackLayout;horizontal=1;startSize=26;horizontalStack=0;resizeParent=1;resizeParentMax=0;resizeLast=0;collapsible=1;marginBottom=0;fontSize=16;" parent="1" vertex="1">
                    <mxGeometry x="610" y="120" width="240" height="216" as="geometry"/>
                </mxCell>
                <mxCell id="31scnzc9531WvHTzDKm4-4" value="* ID электрочайника" style="text;strokeColor=none;fillColor=none;align=left;verticalAlign=top;spacingLeft=4;spacingRight=4;overflow=hidden;rotatable=0;points=[[0,0.5],[1,0.5]];portConstraint=eastwest;fontSize=16;" parent="31scnzc9531WvHTzDKm4-3" vertex="1">
                    <mxGeometry y="26" width="240" height="26" as="geometry"/>
                </mxCell>
                <mxCell id="31scnzc9531WvHTzDKm4-5" value="" style="line;strokeWidth=1;fillColor=none;align=left;verticalAlign=middle;spacingTop=-1;spacingLeft=3;spacingRight=3;rotatable=0;labelPosition=right;points=[];portConstraint=eastwest;" parent="31scnzc9531WvHTzDKm4-3" vertex="1">
                    <mxGeometry y="52" width="240" height="8" as="geometry"/>
                </mxCell>
                <mxCell id="31scnzc9531WvHTzDKm4-6" value="ID нагревателя" style="text;strokeColor=none;fillColor=none;align=left;verticalAlign=top;spacingLeft=4;spacingRight=4;overflow=hidden;rotatable=0;points=[[0,0.5],[1,0.5]];portConstraint=eastwest;fontSize=16;" parent="31scnzc9531WvHTzDKm4-3" vertex="1">
                    <mxGeometry y="60" width="240" height="26" as="geometry"/>
                </mxCell>
                <mxCell id="31scnzc9531WvHTzDKm4-7" value="ID вилки" style="text;strokeColor=none;fillColor=none;align=left;verticalAlign=top;spacingLeft=4;spacingRight=4;overflow=hidden;rotatable=0;points=[[0,0.5],[1,0.5]];portConstraint=eastwest;fontSize=16;" parent="31scnzc9531WvHTzDKm4-3" vertex="1">
                    <mxGeometry y="86" width="240" height="26" as="geometry"/>
                </mxCell>
                <mxCell id="31scnzc9531WvHTzDKm4-8" value="ID крышки" style="text;strokeColor=none;fillColor=none;align=left;verticalAlign=top;spacingLeft=4;spacingRight=4;overflow=hidden;rotatable=0;points=[[0,0.5],[1,0.5]];portConstraint=eastwest;fontSize=16;" parent="31scnzc9531WvHTzDKm4-3" vertex="1">
                    <mxGeometry y="112" width="240" height="26" as="geometry"/>
                </mxCell>
                <mxCell id="31scnzc9531WvHTzDKm4-9" value="ID выключателя" style="text;strokeColor=none;fillColor=none;align=left;verticalAlign=top;spacingLeft=4;spacingRight=4;overflow=hidden;rotatable=0;points=[[0,0.5],[1,0.5]];portConstraint=eastwest;fontSize=16;" parent="31scnzc9531WvHTzDKm4-3" vertex="1">
                    <mxGeometry y="138" width="240" height="26" as="geometry"/>
                </mxCell>
                <mxCell id="31scnzc9531WvHTzDKm4-10" value="ID датчика температуры" style="text;strokeColor=none;fillColor=none;align=left;verticalAlign=top;spacingLeft=4;spacingRight=4;overflow=hidden;rotatable=0;points=[[0,0.5],[1,0.5]];portConstraint=eastwest;fontSize=16;" parent="31scnzc9531WvHTzDKm4-3" vertex="1">
                    <mxGeometry y="164" width="240" height="26" as="geometry"/>
                </mxCell>
                <mxCell id="31scnzc9531WvHTzDKm4-11" value="Cостояние" style="text;strokeColor=none;fillColor=none;align=left;verticalAlign=top;spacingLeft=4;spacingRight=4;overflow=hidden;rotatable=0;points=[[0,0.5],[1,0.5]];portConstraint=eastwest;fontSize=16;" parent="31scnzc9531WvHTzDKm4-3" vertex="1">
                    <mxGeometry y="190" width="240" height="26" as="geometry"/>
                </mxCell>
                <mxCell id="31scnzc9531WvHTzDKm4-12" value="2. Нагревателя (Н)" style="swimlane;fontStyle=1;align=center;verticalAlign=top;childLayout=stackLayout;horizontal=1;startSize=26;horizontalStack=0;resizeParent=1;resizeParentMax=0;resizeLast=0;collapsible=1;marginBottom=0;fontSize=16;" parent="1" vertex="1">
                    <mxGeometry x="200" y="198" width="240" height="86" as="geometry"/>
                </mxCell>
                <mxCell id="31scnzc9531WvHTzDKm4-13" value="*ID нагревателя" style="text;strokeColor=none;fillColor=none;align=left;verticalAlign=top;spacingLeft=4;spacingRight=4;overflow=hidden;rotatable=0;points=[[0,0.5],[1,0.5]];portConstraint=eastwest;fontSize=16;" parent="31scnzc9531WvHTzDKm4-12" vertex="1">
                    <mxGeometry y="26" width="240" height="26" as="geometry"/>
                </mxCell>
                <mxCell id="31scnzc9531WvHTzDKm4-14" value="" style="line;strokeWidth=1;fillColor=none;align=left;verticalAlign=middle;spacingTop=-1;spacingLeft=3;spacingRight=3;rotatable=0;labelPosition=right;points=[];portConstraint=eastwest;" parent="31scnzc9531WvHTzDKm4-12" vertex="1">
                    <mxGeometry y="52" width="240" height="8" as="geometry"/>
                </mxCell>
                <mxCell id="31scnzc9531WvHTzDKm4-15" value="Cостояние" style="text;strokeColor=none;fillColor=none;align=left;verticalAlign=top;spacingLeft=4;spacingRight=4;overflow=hidden;rotatable=0;points=[[0,0.5],[1,0.5]];portConstraint=eastwest;fontSize=16;" parent="31scnzc9531WvHTzDKm4-12" vertex="1">
                    <mxGeometry y="60" width="240" height="26" as="geometry"/>
                </mxCell>
                <mxCell id="31scnzc9531WvHTzDKm4-16" value="3. Вилка (В)" style="swimlane;fontStyle=1;align=center;verticalAlign=top;childLayout=stackLayout;horizontal=1;startSize=26;horizontalStack=0;resizeParent=1;resizeParentMax=0;resizeLast=0;collapsible=1;marginBottom=0;fontSize=16;" parent="1" vertex="1">
                    <mxGeometry x="330" y="470" width="240" height="86" as="geometry"/>
                </mxCell>
                <mxCell id="31scnzc9531WvHTzDKm4-17" value="*ID вилки" style="text;strokeColor=none;fillColor=none;align=left;verticalAlign=top;spacingLeft=4;spacingRight=4;overflow=hidden;rotatable=0;points=[[0,0.5],[1,0.5]];portConstraint=eastwest;fontSize=16;" parent="31scnzc9531WvHTzDKm4-16" vertex="1">
                    <mxGeometry y="26" width="240" height="26" as="geometry"/>
                </mxCell>
                <mxCell id="31scnzc9531WvHTzDKm4-18" value="" style="line;strokeWidth=1;fillColor=none;align=left;verticalAlign=middle;spacingTop=-1;spacingLeft=3;spacingRight=3;rotatable=0;labelPosition=right;points=[];portConstraint=eastwest;" parent="31scnzc9531WvHTzDKm4-16" vertex="1">
                    <mxGeometry y="52" width="240" height="8" as="geometry"/>
                </mxCell>
                <mxCell id="31scnzc9531WvHTzDKm4-19" value="Cостояние" style="text;strokeColor=none;fillColor=none;align=left;verticalAlign=top;spacingLeft=4;spacingRight=4;overflow=hidden;rotatable=0;points=[[0,0.5],[1,0.5]];portConstraint=eastwest;fontSize=16;" parent="31scnzc9531WvHTzDKm4-16" vertex="1">
                    <mxGeometry y="60" width="240" height="26" as="geometry"/>
                </mxCell>
                <mxCell id="31scnzc9531WvHTzDKm4-20" value="4. Крышка (К)" style="swimlane;fontStyle=1;align=center;verticalAlign=top;childLayout=stackLayout;horizontal=1;startSize=26;horizontalStack=0;resizeParent=1;resizeParentMax=0;resizeLast=0;collapsible=1;marginBottom=0;fontSize=16;" parent="1" vertex="1">
                    <mxGeometry x="610" y="470" width="240" height="86" as="geometry"/>
                </mxCell>
                <mxCell id="31scnzc9531WvHTzDKm4-21" value="*ID крышки" style="text;strokeColor=none;fillColor=none;align=left;verticalAlign=top;spacingLeft=4;spacingRight=4;overflow=hidden;rotatable=0;points=[[0,0.5],[1,0.5]];portConstraint=eastwest;fontSize=16;" parent="31scnzc9531WvHTzDKm4-20" vertex="1">
                    <mxGeometry y="26" width="240" height="26" as="geometry"/>
                </mxCell>
                <mxCell id="31scnzc9531WvHTzDKm4-22" value="" style="line;strokeWidth=1;fillColor=none;align=left;verticalAlign=middle;spacingTop=-1;spacingLeft=3;spacingRight=3;rotatable=0;labelPosition=right;points=[];portConstraint=eastwest;" parent="31scnzc9531WvHTzDKm4-20" vertex="1">
                    <mxGeometry y="52" width="240" height="8" as="geometry"/>
                </mxCell>
                <mxCell id="31scnzc9531WvHTzDKm4-23" value="Cостояние" style="text;strokeColor=none;fillColor=none;align=left;verticalAlign=top;spacingLeft=4;spacingRight=4;overflow=hidden;rotatable=0;points=[[0,0.5],[1,0.5]];portConstraint=eastwest;fontSize=16;" parent="31scnzc9531WvHTzDKm4-20" vertex="1">
                    <mxGeometry y="60" width="240" height="26" as="geometry"/>
                </mxCell>
                <mxCell id="31scnzc9531WvHTzDKm4-24" value="5. Выключатель (ВКЛ)" style="swimlane;fontStyle=1;align=center;verticalAlign=top;childLayout=stackLayout;horizontal=1;startSize=26;horizontalStack=0;resizeParent=1;resizeParentMax=0;resizeLast=0;collapsible=1;marginBottom=0;fontSize=16;" parent="1" vertex="1">
                    <mxGeometry x="900" y="470" width="240" height="86" as="geometry"/>
                </mxCell>
                <mxCell id="31scnzc9531WvHTzDKm4-25" value="*ID выключателя" style="text;strokeColor=none;fillColor=none;align=left;verticalAlign=top;spacingLeft=4;spacingRight=4;overflow=hidden;rotatable=0;points=[[0,0.5],[1,0.5]];portConstraint=eastwest;fontSize=16;" parent="31scnzc9531WvHTzDKm4-24" vertex="1">
                    <mxGeometry y="26" width="240" height="26" as="geometry"/>
                </mxCell>
                <mxCell id="31scnzc9531WvHTzDKm4-26" value="" style="line;strokeWidth=1;fillColor=none;align=left;verticalAlign=middle;spacingTop=-1;spacingLeft=3;spacingRight=3;rotatable=0;labelPosition=right;points=[];portConstraint=eastwest;" parent="31scnzc9531WvHTzDKm4-24" vertex="1">
                    <mxGeometry y="52" width="240" height="8" as="geometry"/>
                </mxCell>
                <mxCell id="31scnzc9531WvHTzDKm4-27" value="Cостояние" style="text;strokeColor=none;fillColor=none;align=left;verticalAlign=top;spacingLeft=4;spacingRight=4;overflow=hidden;rotatable=0;points=[[0,0.5],[1,0.5]];portConstraint=eastwest;fontSize=16;" parent="31scnzc9531WvHTzDKm4-24" vertex="1">
                    <mxGeometry y="60" width="240" height="26" as="geometry"/>
                </mxCell>
                <mxCell id="31scnzc9531WvHTzDKm4-28" value="6. Датчик температуры (ДТ)" style="swimlane;fontStyle=1;align=center;verticalAlign=top;childLayout=stackLayout;horizontal=1;startSize=26;horizontalStack=0;resizeParent=1;resizeParentMax=0;resizeLast=0;collapsible=1;marginBottom=0;fontSize=16;" parent="1" vertex="1">
                    <mxGeometry x="1090" y="172" width="240" height="112" as="geometry"/>
                </mxCell>
                <mxCell id="31scnzc9531WvHTzDKm4-29" value="*ID датчика температуры" style="text;strokeColor=none;fillColor=none;align=left;verticalAlign=top;spacingLeft=4;spacingRight=4;overflow=hidden;rotatable=0;points=[[0,0.5],[1,0.5]];portConstraint=eastwest;fontSize=16;" parent="31scnzc9531WvHTzDKm4-28" vertex="1">
                    <mxGeometry y="26" width="240" height="26" as="geometry"/>
                </mxCell>
                <mxCell id="31scnzc9531WvHTzDKm4-30" value="" style="line;strokeWidth=1;fillColor=none;align=left;verticalAlign=middle;spacingTop=-1;spacingLeft=3;spacingRight=3;rotatable=0;labelPosition=right;points=[];portConstraint=eastwest;" parent="31scnzc9531WvHTzDKm4-28" vertex="1">
                    <mxGeometry y="52" width="240" height="8" as="geometry"/>
                </mxCell>
                <mxCell id="31scnzc9531WvHTzDKm4-31" value="Необходимая температура" style="text;strokeColor=none;fillColor=none;align=left;verticalAlign=top;spacingLeft=4;spacingRight=4;overflow=hidden;rotatable=0;points=[[0,0.5],[1,0.5]];portConstraint=eastwest;fontSize=16;" parent="31scnzc9531WvHTzDKm4-28" vertex="1">
                    <mxGeometry y="60" width="240" height="26" as="geometry"/>
                </mxCell>
                <mxCell id="31scnzc9531WvHTzDKm4-32" value="Cостояние" style="text;strokeColor=none;fillColor=none;align=left;verticalAlign=top;spacingLeft=4;spacingRight=4;overflow=hidden;rotatable=0;points=[[0,0.5],[1,0.5]];portConstraint=eastwest;fontSize=16;" parent="31scnzc9531WvHTzDKm4-28" vertex="1">
                    <mxGeometry y="86" width="240" height="26" as="geometry"/>
                </mxCell>
                <mxCell id="31scnzc9531WvHTzDKm4-33" value="R12" style="edgeStyle=orthogonalEdgeStyle;rounded=0;orthogonalLoop=1;jettySize=auto;html=1;exitX=0;exitY=0.5;exitDx=0;exitDy=0;entryX=1.004;entryY=0.846;entryDx=0;entryDy=0;entryPerimeter=0;fontSize=16;fontStyle=0;startArrow=classic;startFill=1;" parent="1" source="31scnzc9531WvHTzDKm4-8" target="31scnzc9531WvHTzDKm4-13" edge="1">
                    <mxGeometry relative="1" as="geometry">
                        <Array as="points">
                            <mxPoint x="610" y="246"/>
                        </Array>
                    </mxGeometry>
                </mxCell>
                <mxCell id="31scnzc9531WvHTzDKm4-34" value="R16" style="edgeStyle=orthogonalEdgeStyle;rounded=0;orthogonalLoop=1;jettySize=auto;html=1;exitX=1;exitY=0.5;exitDx=0;exitDy=0;entryX=0;entryY=0.5;entryDx=0;entryDy=0;fontSize=16;startArrow=classic;startFill=1;" parent="1" source="31scnzc9531WvHTzDKm4-8" target="31scnzc9531WvHTzDKm4-31" edge="1">
                    <mxGeometry relative="1" as="geometry"/>
                </mxCell>
                <mxCell id="31scnzc9531WvHTzDKm4-35" value="R13" style="edgeStyle=orthogonalEdgeStyle;rounded=0;orthogonalLoop=1;jettySize=auto;html=1;exitX=0;exitY=0.5;exitDx=0;exitDy=0;entryX=0.5;entryY=0;entryDx=0;entryDy=0;fontSize=16;startArrow=classic;startFill=1;" parent="1" source="31scnzc9531WvHTzDKm4-11" target="31scnzc9531WvHTzDKm4-16" edge="1">
                    <mxGeometry relative="1" as="geometry"/>
                </mxCell>
                <mxCell id="31scnzc9531WvHTzDKm4-36" value="R15" style="edgeStyle=orthogonalEdgeStyle;rounded=0;orthogonalLoop=1;jettySize=auto;html=1;exitX=1;exitY=0.5;exitDx=0;exitDy=0;entryX=0.5;entryY=0;entryDx=0;entryDy=0;fontSize=16;startArrow=classic;startFill=1;" parent="1" source="31scnzc9531WvHTzDKm4-11" target="31scnzc9531WvHTzDKm4-24" edge="1">
                    <mxGeometry relative="1" as="geometry"/>
                </mxCell>
                <mxCell id="W22pBPJYgx7MwGGvN9Yu-1" value="&lt;font style=&quot;font-size: 32px&quot;&gt;&lt;b&gt;Диаграмма Сущность-Связь (ДСС)&lt;/b&gt;&lt;/font&gt;" style="text;html=1;align=center;verticalAlign=middle;resizable=0;points=[];autosize=1;strokeColor=none;fillColor=none;" parent="1" vertex="1">
                    <mxGeometry x="485" y="45" width="570" height="30" as="geometry"/>
                </mxCell>
            </root>
        </mxGraphModel>
    </diagram>
    <diagram id="YMY06f2i0xVLfhPeXCJ1" name="mvo">
        <mxGraphModel dx="1350" dy="803" grid="1" gridSize="10" guides="1" tooltips="1" connect="1" arrows="1" fold="1" page="1" pageScale="1" pageWidth="4681" pageHeight="3300" math="0" shadow="0">
            <root>
                <mxCell id="fn1gSBCFnf1n2dm7TXk4-0"/>
                <mxCell id="fn1gSBCFnf1n2dm7TXk4-1" parent="fn1gSBCFnf1n2dm7TXk4-0"/>
                <mxCell id="fn1gSBCFnf1n2dm7TXk4-2" value="Э1" style="edgeStyle=orthogonalEdgeStyle;rounded=0;orthogonalLoop=1;jettySize=auto;html=1;exitX=0.25;exitY=1;exitDx=0;exitDy=0;entryX=0.211;entryY=-0.017;entryDx=0;entryDy=0;entryPerimeter=0;fontSize=16;" edge="1" parent="fn1gSBCFnf1n2dm7TXk4-1" source="fn1gSBCFnf1n2dm7TXk4-5" target="fn1gSBCFnf1n2dm7TXk4-9">
                    <mxGeometry relative="1" as="geometry"/>
                </mxCell>
                <mxCell id="fn1gSBCFnf1n2dm7TXk4-3" value="Э4" style="edgeStyle=orthogonalEdgeStyle;rounded=0;orthogonalLoop=1;jettySize=auto;html=1;entryX=0.5;entryY=0;entryDx=0;entryDy=0;fontSize=16;" edge="1" parent="fn1gSBCFnf1n2dm7TXk4-1" source="fn1gSBCFnf1n2dm7TXk4-5" target="fn1gSBCFnf1n2dm7TXk4-9">
                    <mxGeometry relative="1" as="geometry"/>
                </mxCell>
                <mxCell id="fn1gSBCFnf1n2dm7TXk4-4" value="Э5" style="edgeStyle=orthogonalEdgeStyle;rounded=0;orthogonalLoop=1;jettySize=auto;html=1;exitX=0.75;exitY=1;exitDx=0;exitDy=0;entryX=0.789;entryY=-0.05;entryDx=0;entryDy=0;entryPerimeter=0;fontSize=16;" edge="1" parent="fn1gSBCFnf1n2dm7TXk4-1" source="fn1gSBCFnf1n2dm7TXk4-5" target="fn1gSBCFnf1n2dm7TXk4-9">
                    <mxGeometry relative="1" as="geometry"/>
                </mxCell>
                <mxCell id="fn1gSBCFnf1n2dm7TXk4-5" value="Пользователь" style="rounded=0;whiteSpace=wrap;html=1;fontSize=16;" vertex="1" parent="fn1gSBCFnf1n2dm7TXk4-1">
                    <mxGeometry x="620" y="70" width="220" height="60" as="geometry"/>
                </mxCell>
                <mxCell id="fn1gSBCFnf1n2dm7TXk4-6" value="Н1, Н2" style="edgeStyle=orthogonalEdgeStyle;rounded=0;orthogonalLoop=1;jettySize=auto;html=1;exitX=0;exitY=0.25;exitDx=0;exitDy=0;entryX=1;entryY=0.5;entryDx=0;entryDy=0;fontSize=16;" edge="1" parent="fn1gSBCFnf1n2dm7TXk4-1" source="fn1gSBCFnf1n2dm7TXk4-9" target="fn1gSBCFnf1n2dm7TXk4-10">
                    <mxGeometry relative="1" as="geometry"/>
                </mxCell>
                <mxCell id="fn1gSBCFnf1n2dm7TXk4-7" value="ВКЛ2" style="edgeStyle=orthogonalEdgeStyle;rounded=0;orthogonalLoop=1;jettySize=auto;html=1;exitX=0.75;exitY=1;exitDx=0;exitDy=0;entryX=0.25;entryY=0;entryDx=0;entryDy=0;fontSize=16;startArrow=classic;startFill=1;endArrow=none;endFill=0;" edge="1" parent="fn1gSBCFnf1n2dm7TXk4-1" source="fn1gSBCFnf1n2dm7TXk4-9" target="fn1gSBCFnf1n2dm7TXk4-17">
                    <mxGeometry x="-0.0168" relative="1" as="geometry">
                        <Array as="points">
                            <mxPoint x="772" y="330"/>
                            <mxPoint x="933" y="330"/>
                        </Array>
                        <mxPoint as="offset"/>
                    </mxGeometry>
                </mxCell>
                <mxCell id="fn1gSBCFnf1n2dm7TXk4-8" value="ДТ1" style="edgeStyle=orthogonalEdgeStyle;rounded=0;orthogonalLoop=1;jettySize=auto;html=1;exitX=1;exitY=0.75;exitDx=0;exitDy=0;entryX=0;entryY=0.75;entryDx=0;entryDy=0;fontSize=16;startArrow=none;startFill=0;" edge="1" parent="fn1gSBCFnf1n2dm7TXk4-1" source="fn1gSBCFnf1n2dm7TXk4-9" target="fn1gSBCFnf1n2dm7TXk4-19">
                    <mxGeometry relative="1" as="geometry"/>
                </mxCell>
                <mxCell id="fn1gSBCFnf1n2dm7TXk4-9" value="1. Электрочайник" style="ellipse;whiteSpace=wrap;html=1;fontSize=16;" vertex="1" parent="fn1gSBCFnf1n2dm7TXk4-1">
                    <mxGeometry x="635" y="190" width="190" height="60" as="geometry"/>
                </mxCell>
                <mxCell id="fn1gSBCFnf1n2dm7TXk4-10" value="2. Нагреватель" style="ellipse;whiteSpace=wrap;html=1;fontSize=16;" vertex="1" parent="fn1gSBCFnf1n2dm7TXk4-1">
                    <mxGeometry x="260" y="180" width="190" height="60" as="geometry"/>
                </mxCell>
                <mxCell id="fn1gSBCFnf1n2dm7TXk4-11" value="В1, В2" style="edgeStyle=orthogonalEdgeStyle;rounded=0;orthogonalLoop=1;jettySize=auto;html=1;exitX=0.5;exitY=0;exitDx=0;exitDy=0;entryX=0;entryY=1;entryDx=0;entryDy=0;fontSize=16;startArrow=none;startFill=0;" edge="1" parent="fn1gSBCFnf1n2dm7TXk4-1" source="fn1gSBCFnf1n2dm7TXk4-12" target="fn1gSBCFnf1n2dm7TXk4-9">
                    <mxGeometry relative="1" as="geometry"/>
                </mxCell>
                <mxCell id="fn1gSBCFnf1n2dm7TXk4-12" value="3. Вилка" style="ellipse;whiteSpace=wrap;html=1;fontSize=16;" vertex="1" parent="fn1gSBCFnf1n2dm7TXk4-1">
                    <mxGeometry x="390" y="410" width="190" height="60" as="geometry"/>
                </mxCell>
                <mxCell id="fn1gSBCFnf1n2dm7TXk4-13" value="&lt;font style=&quot;font-size: 16px&quot;&gt;К1&lt;/font&gt;" style="edgeStyle=orthogonalEdgeStyle;rounded=0;orthogonalLoop=1;jettySize=auto;html=1;exitX=0;exitY=0;exitDx=0;exitDy=0;entryX=0.342;entryY=1;entryDx=0;entryDy=0;entryPerimeter=0;" edge="1" parent="fn1gSBCFnf1n2dm7TXk4-1" source="fn1gSBCFnf1n2dm7TXk4-15" target="fn1gSBCFnf1n2dm7TXk4-9">
                    <mxGeometry relative="1" as="geometry"/>
                </mxCell>
                <mxCell id="fn1gSBCFnf1n2dm7TXk4-14" value="&lt;font style=&quot;font-size: 16px&quot;&gt;К2&lt;/font&gt;" style="edgeStyle=orthogonalEdgeStyle;rounded=0;orthogonalLoop=1;jettySize=auto;html=1;exitX=1;exitY=0;exitDx=0;exitDy=0;entryX=0.5;entryY=1;entryDx=0;entryDy=0;" edge="1" parent="fn1gSBCFnf1n2dm7TXk4-1" source="fn1gSBCFnf1n2dm7TXk4-15" target="fn1gSBCFnf1n2dm7TXk4-9">
                    <mxGeometry relative="1" as="geometry"/>
                </mxCell>
                <mxCell id="fn1gSBCFnf1n2dm7TXk4-15" value="4. Крышка" style="ellipse;whiteSpace=wrap;html=1;fontSize=16;" vertex="1" parent="fn1gSBCFnf1n2dm7TXk4-1">
                    <mxGeometry x="635" y="510" width="190" height="60" as="geometry"/>
                </mxCell>
                <mxCell id="fn1gSBCFnf1n2dm7TXk4-16" value="ВКЛ1" style="edgeStyle=orthogonalEdgeStyle;rounded=0;orthogonalLoop=1;jettySize=auto;html=1;exitX=0.5;exitY=0;exitDx=0;exitDy=0;entryX=1;entryY=1;entryDx=0;entryDy=0;fontSize=16;startArrow=none;startFill=0;" edge="1" parent="fn1gSBCFnf1n2dm7TXk4-1" source="fn1gSBCFnf1n2dm7TXk4-17" target="fn1gSBCFnf1n2dm7TXk4-9">
                    <mxGeometry relative="1" as="geometry">
                        <Array as="points">
                            <mxPoint x="975" y="300"/>
                            <mxPoint x="797" y="300"/>
                        </Array>
                    </mxGeometry>
                </mxCell>
                <mxCell id="fn1gSBCFnf1n2dm7TXk4-17" value="5. Выключатель" style="ellipse;whiteSpace=wrap;html=1;fontSize=16;" vertex="1" parent="fn1gSBCFnf1n2dm7TXk4-1">
                    <mxGeometry x="880" y="410" width="190" height="60" as="geometry"/>
                </mxCell>
                <mxCell id="fn1gSBCFnf1n2dm7TXk4-18" value="ДТ2" style="edgeStyle=orthogonalEdgeStyle;rounded=0;orthogonalLoop=1;jettySize=auto;html=1;exitX=0;exitY=0.25;exitDx=0;exitDy=0;entryX=1;entryY=0.25;entryDx=0;entryDy=0;fontSize=16;startArrow=none;startFill=0;" edge="1" parent="fn1gSBCFnf1n2dm7TXk4-1" source="fn1gSBCFnf1n2dm7TXk4-19" target="fn1gSBCFnf1n2dm7TXk4-9">
                    <mxGeometry relative="1" as="geometry"/>
                </mxCell>
                <mxCell id="fn1gSBCFnf1n2dm7TXk4-19" value="6. Датчик температуры" style="ellipse;whiteSpace=wrap;html=1;fontSize=16;" vertex="1" parent="fn1gSBCFnf1n2dm7TXk4-1">
                    <mxGeometry x="1070" y="190" width="190" height="60" as="geometry"/>
                </mxCell>
                <mxCell id="fn1gSBCFnf1n2dm7TXk4-20" value="&lt;font style=&quot;font-size: 16px&quot;&gt;К1&lt;/font&gt;" style="edgeStyle=orthogonalEdgeStyle;rounded=0;orthogonalLoop=1;jettySize=auto;html=1;exitX=0.75;exitY=0;exitDx=0;exitDy=0;entryX=0;entryY=1;entryDx=0;entryDy=0;" edge="1" parent="fn1gSBCFnf1n2dm7TXk4-1" source="fn1gSBCFnf1n2dm7TXk4-26" target="fn1gSBCFnf1n2dm7TXk4-15">
                    <mxGeometry relative="1" as="geometry"/>
                </mxCell>
                <mxCell id="fn1gSBCFnf1n2dm7TXk4-21" value="&lt;font style=&quot;font-size: 16px&quot;&gt;К2&lt;/font&gt;" style="edgeStyle=orthogonalEdgeStyle;rounded=0;orthogonalLoop=1;jettySize=auto;html=1;exitX=0.909;exitY=-0.017;exitDx=0;exitDy=0;entryX=1;entryY=1;entryDx=0;entryDy=0;exitPerimeter=0;" edge="1" parent="fn1gSBCFnf1n2dm7TXk4-1" source="fn1gSBCFnf1n2dm7TXk4-26" target="fn1gSBCFnf1n2dm7TXk4-15">
                    <mxGeometry relative="1" as="geometry"/>
                </mxCell>
                <mxCell id="fn1gSBCFnf1n2dm7TXk4-22" value="&lt;font style=&quot;font-size: 16px&quot;&gt;В1&lt;/font&gt;" style="edgeStyle=orthogonalEdgeStyle;rounded=0;orthogonalLoop=1;jettySize=auto;html=1;exitX=0.5;exitY=0;exitDx=0;exitDy=0;entryX=1;entryY=1;entryDx=0;entryDy=0;" edge="1" parent="fn1gSBCFnf1n2dm7TXk4-1" source="fn1gSBCFnf1n2dm7TXk4-26" target="fn1gSBCFnf1n2dm7TXk4-12">
                    <mxGeometry relative="1" as="geometry">
                        <Array as="points">
                            <mxPoint x="730" y="700"/>
                            <mxPoint x="630" y="700"/>
                            <mxPoint x="630" y="600"/>
                            <mxPoint x="552" y="600"/>
                        </Array>
                    </mxGeometry>
                </mxCell>
                <mxCell id="fn1gSBCFnf1n2dm7TXk4-23" value="&lt;font style=&quot;font-size: 16px&quot;&gt;В2&lt;/font&gt;" style="edgeStyle=orthogonalEdgeStyle;rounded=0;orthogonalLoop=1;jettySize=auto;html=1;exitX=0.25;exitY=0;exitDx=0;exitDy=0;entryX=0.5;entryY=1;entryDx=0;entryDy=0;" edge="1" parent="fn1gSBCFnf1n2dm7TXk4-1" source="fn1gSBCFnf1n2dm7TXk4-26" target="fn1gSBCFnf1n2dm7TXk4-12">
                    <mxGeometry relative="1" as="geometry">
                        <Array as="points">
                            <mxPoint x="675" y="720"/>
                            <mxPoint x="485" y="720"/>
                        </Array>
                    </mxGeometry>
                </mxCell>
                <mxCell id="fn1gSBCFnf1n2dm7TXk4-24" value="&lt;font style=&quot;font-size: 16px&quot;&gt;ВКЛ1&lt;/font&gt;" style="edgeStyle=orthogonalEdgeStyle;rounded=0;orthogonalLoop=1;jettySize=auto;html=1;exitX=1;exitY=0.25;exitDx=0;exitDy=0;entryX=0;entryY=1;entryDx=0;entryDy=0;" edge="1" parent="fn1gSBCFnf1n2dm7TXk4-1" source="fn1gSBCFnf1n2dm7TXk4-26" target="fn1gSBCFnf1n2dm7TXk4-17">
                    <mxGeometry relative="1" as="geometry"/>
                </mxCell>
                <mxCell id="fn1gSBCFnf1n2dm7TXk4-25" value="&lt;font style=&quot;font-size: 16px&quot;&gt;ВКЛ2&lt;/font&gt;" style="edgeStyle=orthogonalEdgeStyle;rounded=0;orthogonalLoop=1;jettySize=auto;html=1;exitX=1;exitY=0.75;exitDx=0;exitDy=0;entryX=0.5;entryY=1;entryDx=0;entryDy=0;" edge="1" parent="fn1gSBCFnf1n2dm7TXk4-1" source="fn1gSBCFnf1n2dm7TXk4-26" target="fn1gSBCFnf1n2dm7TXk4-17">
                    <mxGeometry relative="1" as="geometry"/>
                </mxCell>
                <mxCell id="fn1gSBCFnf1n2dm7TXk4-26" value="Пользователь" style="rounded=0;whiteSpace=wrap;html=1;fontSize=16;" vertex="1" parent="fn1gSBCFnf1n2dm7TXk4-1">
                    <mxGeometry x="620" y="730" width="220" height="60" as="geometry"/>
                </mxCell>
                <mxCell id="fn1gSBCFnf1n2dm7TXk4-27" value="&lt;font style=&quot;font-size: 16px&quot;&gt;ДТ2&lt;/font&gt;" style="edgeStyle=orthogonalEdgeStyle;rounded=0;orthogonalLoop=1;jettySize=auto;html=1;exitX=0.5;exitY=0;exitDx=0;exitDy=0;entryX=0.5;entryY=1;entryDx=0;entryDy=0;" edge="1" parent="fn1gSBCFnf1n2dm7TXk4-1" source="fn1gSBCFnf1n2dm7TXk4-28" target="fn1gSBCFnf1n2dm7TXk4-19">
                    <mxGeometry relative="1" as="geometry"/>
                </mxCell>
                <mxCell id="fn1gSBCFnf1n2dm7TXk4-28" value="&amp;nbsp;Терминатор" style="rounded=0;whiteSpace=wrap;html=1;fontSize=16;" vertex="1" parent="fn1gSBCFnf1n2dm7TXk4-1">
                    <mxGeometry x="1055" y="340" width="220" height="60" as="geometry"/>
                </mxCell>
                <mxCell id="ij4Z9y1rO728DXhEPdXS-0" value="&lt;font style=&quot;font-size: 32px&quot;&gt;&lt;b&gt;Модель Взаимодействия Объектов (МВО)&lt;/b&gt;&lt;/font&gt;" style="text;html=1;align=center;verticalAlign=middle;resizable=0;points=[];autosize=1;strokeColor=none;fillColor=none;" vertex="1" parent="fn1gSBCFnf1n2dm7TXk4-1">
                    <mxGeometry x="430" y="10" width="680" height="30" as="geometry"/>
                </mxCell>
            </root>
        </mxGraphModel>
    </diagram>
    <diagram id="YXNZhT3x1NFJAkweVwqr" name="dps">
        <mxGraphModel dx="1350" dy="803" grid="1" gridSize="10" guides="1" tooltips="1" connect="1" arrows="1" fold="1" page="1" pageScale="1" pageWidth="4681" pageHeight="3300" math="0" shadow="0">
            <root>
                <mxCell id="bDL4ATKbaho1a3p4V-Jz-0"/>
                <mxCell id="bDL4ATKbaho1a3p4V-Jz-1" parent="bDL4ATKbaho1a3p4V-Jz-0"/>
                <mxCell id="7LEagK5MLIi-Edm-ylrw-0" value="&lt;font style=&quot;font-size: 32px&quot;&gt;&lt;b&gt;Диаграмма Переходов Состояний (ДПС)&lt;br&gt;&lt;/b&gt;&lt;/font&gt;" style="text;html=1;align=center;verticalAlign=middle;resizable=0;points=[];autosize=1;strokeColor=none;fillColor=none;" vertex="1" parent="bDL4ATKbaho1a3p4V-Jz-1">
                    <mxGeometry x="445" y="45" width="650" height="30" as="geometry"/>
                </mxCell>
                <mxCell id="cTFWsZc5-iYyBP7X055F-0" style="edgeStyle=orthogonalEdgeStyle;rounded=0;orthogonalLoop=1;jettySize=auto;html=1;exitX=0.5;exitY=1;exitDx=0;exitDy=0;entryX=0.5;entryY=0;entryDx=0;entryDy=0;fontSize=16;" edge="1" parent="bDL4ATKbaho1a3p4V-Jz-1" source="cTFWsZc5-iYyBP7X055F-1" target="cTFWsZc5-iYyBP7X055F-4">
                    <mxGeometry relative="1" as="geometry"/>
                </mxCell>
                <mxCell id="cTFWsZc5-iYyBP7X055F-1" value="" style="ellipse;whiteSpace=wrap;html=1;aspect=fixed;fontSize=16;" vertex="1" parent="bDL4ATKbaho1a3p4V-Jz-1">
                    <mxGeometry x="320" y="170" width="60" height="60" as="geometry"/>
                </mxCell>
                <mxCell id="cTFWsZc5-iYyBP7X055F-2" value="&lt;b&gt;Электрочайник&lt;/b&gt;" style="text;html=1;align=center;verticalAlign=middle;resizable=0;points=[];autosize=1;strokeColor=none;fontSize=16;" vertex="1" parent="bDL4ATKbaho1a3p4V-Jz-1">
                    <mxGeometry x="280" y="110" width="140" height="20" as="geometry"/>
                </mxCell>
                <mxCell id="cTFWsZc5-iYyBP7X055F-3" value="Э1" style="edgeStyle=orthogonalEdgeStyle;rounded=0;orthogonalLoop=1;jettySize=auto;html=1;exitX=0;exitY=0.5;exitDx=0;exitDy=0;entryX=0.5;entryY=0;entryDx=0;entryDy=0;fontSize=16;" edge="1" parent="bDL4ATKbaho1a3p4V-Jz-1" source="cTFWsZc5-iYyBP7X055F-4" target="cTFWsZc5-iYyBP7X055F-8">
                    <mxGeometry relative="1" as="geometry"/>
                </mxCell>
                <mxCell id="cTFWsZc5-iYyBP7X055F-4" value="1. Выключен" style="whiteSpace=wrap;html=1;fontSize=16;" vertex="1" parent="bDL4ATKbaho1a3p4V-Jz-1">
                    <mxGeometry x="280" y="280" width="140" height="60" as="geometry"/>
                </mxCell>
                <mxCell id="cTFWsZc5-iYyBP7X055F-5" value="Э2" style="edgeStyle=orthogonalEdgeStyle;rounded=0;orthogonalLoop=1;jettySize=auto;html=1;exitX=0.5;exitY=1;exitDx=0;exitDy=0;entryX=0;entryY=0.5;entryDx=0;entryDy=0;fontSize=16;" edge="1" parent="bDL4ATKbaho1a3p4V-Jz-1" source="cTFWsZc5-iYyBP7X055F-8" target="cTFWsZc5-iYyBP7X055F-12">
                    <mxGeometry relative="1" as="geometry"/>
                </mxCell>
                <mxCell id="cTFWsZc5-iYyBP7X055F-6" value="&lt;font style=&quot;font-size: 16px&quot;&gt;Э3&lt;/font&gt;" style="edgeStyle=orthogonalEdgeStyle;rounded=0;orthogonalLoop=1;jettySize=auto;html=1;exitX=1;exitY=0.25;exitDx=0;exitDy=0;entryX=0;entryY=0.25;entryDx=0;entryDy=0;" edge="1" parent="bDL4ATKbaho1a3p4V-Jz-1" source="cTFWsZc5-iYyBP7X055F-8" target="cTFWsZc5-iYyBP7X055F-14">
                    <mxGeometry relative="1" as="geometry"/>
                </mxCell>
                <mxCell id="cTFWsZc5-iYyBP7X055F-7" value="&lt;font style=&quot;font-size: 16px&quot;&gt;Э5&lt;/font&gt;" style="edgeStyle=orthogonalEdgeStyle;rounded=0;orthogonalLoop=1;jettySize=auto;html=1;exitX=1;exitY=0.75;exitDx=0;exitDy=0;entryX=0;entryY=0.75;entryDx=0;entryDy=0;" edge="1" parent="bDL4ATKbaho1a3p4V-Jz-1" source="cTFWsZc5-iYyBP7X055F-8" target="cTFWsZc5-iYyBP7X055F-14">
                    <mxGeometry relative="1" as="geometry"/>
                </mxCell>
                <mxCell id="cTFWsZc5-iYyBP7X055F-8" value="2. Влючается" style="whiteSpace=wrap;html=1;fontSize=16;" vertex="1" parent="bDL4ATKbaho1a3p4V-Jz-1">
                    <mxGeometry x="60" y="390" width="140" height="60" as="geometry"/>
                </mxCell>
                <mxCell id="cTFWsZc5-iYyBP7X055F-9" value="Э4" style="edgeStyle=orthogonalEdgeStyle;rounded=0;orthogonalLoop=1;jettySize=auto;html=1;exitX=1;exitY=0.5;exitDx=0;exitDy=0;entryX=0.5;entryY=1;entryDx=0;entryDy=0;fontSize=16;" edge="1" parent="bDL4ATKbaho1a3p4V-Jz-1" source="cTFWsZc5-iYyBP7X055F-12" target="cTFWsZc5-iYyBP7X055F-14">
                    <mxGeometry relative="1" as="geometry"/>
                </mxCell>
                <mxCell id="cTFWsZc5-iYyBP7X055F-10" value="Э3" style="edgeStyle=orthogonalEdgeStyle;rounded=0;orthogonalLoop=1;jettySize=auto;html=1;exitX=0.5;exitY=0;exitDx=0;exitDy=0;entryX=0.25;entryY=1;entryDx=0;entryDy=0;fontSize=16;" edge="1" parent="bDL4ATKbaho1a3p4V-Jz-1" source="cTFWsZc5-iYyBP7X055F-12" target="cTFWsZc5-iYyBP7X055F-14">
                    <mxGeometry relative="1" as="geometry">
                        <Array as="points">
                            <mxPoint x="350" y="470"/>
                            <mxPoint x="503" y="470"/>
                        </Array>
                    </mxGeometry>
                </mxCell>
                <mxCell id="cTFWsZc5-iYyBP7X055F-11" value="&lt;font style=&quot;font-size: 16px&quot;&gt;Э5&lt;/font&gt;" style="edgeStyle=orthogonalEdgeStyle;rounded=0;orthogonalLoop=1;jettySize=auto;html=1;exitX=0.5;exitY=1;exitDx=0;exitDy=0;entryX=0.75;entryY=1;entryDx=0;entryDy=0;" edge="1" parent="bDL4ATKbaho1a3p4V-Jz-1" source="cTFWsZc5-iYyBP7X055F-12" target="cTFWsZc5-iYyBP7X055F-14">
                    <mxGeometry relative="1" as="geometry"/>
                </mxCell>
                <mxCell id="cTFWsZc5-iYyBP7X055F-12" value="3. Работает&lt;br&gt;(нагреватся вода)" style="whiteSpace=wrap;html=1;fontSize=16;" vertex="1" parent="bDL4ATKbaho1a3p4V-Jz-1">
                    <mxGeometry x="280" y="480" width="140" height="60" as="geometry"/>
                </mxCell>
                <mxCell id="cTFWsZc5-iYyBP7X055F-13" value="Э6" style="edgeStyle=orthogonalEdgeStyle;rounded=0;orthogonalLoop=1;jettySize=auto;html=1;exitX=0.5;exitY=0;exitDx=0;exitDy=0;entryX=1;entryY=0.5;entryDx=0;entryDy=0;fontSize=16;" edge="1" parent="bDL4ATKbaho1a3p4V-Jz-1" source="cTFWsZc5-iYyBP7X055F-14" target="cTFWsZc5-iYyBP7X055F-4">
                    <mxGeometry relative="1" as="geometry"/>
                </mxCell>
                <mxCell id="cTFWsZc5-iYyBP7X055F-14" value="4. Выключается" style="whiteSpace=wrap;html=1;fontSize=16;" vertex="1" parent="bDL4ATKbaho1a3p4V-Jz-1">
                    <mxGeometry x="470" y="390" width="130" height="60" as="geometry"/>
                </mxCell>
                <mxCell id="cTFWsZc5-iYyBP7X055F-15" style="edgeStyle=orthogonalEdgeStyle;rounded=0;orthogonalLoop=1;jettySize=auto;html=1;exitX=0.5;exitY=1;exitDx=0;exitDy=0;entryX=0.5;entryY=0;entryDx=0;entryDy=0;fontSize=16;" edge="1" parent="bDL4ATKbaho1a3p4V-Jz-1" source="cTFWsZc5-iYyBP7X055F-16" target="cTFWsZc5-iYyBP7X055F-19">
                    <mxGeometry relative="1" as="geometry"/>
                </mxCell>
                <mxCell id="cTFWsZc5-iYyBP7X055F-16" value="" style="ellipse;whiteSpace=wrap;html=1;aspect=fixed;fontSize=16;" vertex="1" parent="bDL4ATKbaho1a3p4V-Jz-1">
                    <mxGeometry x="910" y="170" width="60" height="60" as="geometry"/>
                </mxCell>
                <mxCell id="cTFWsZc5-iYyBP7X055F-17" value="&lt;b&gt;Нагреватель&lt;/b&gt;" style="text;html=1;align=center;verticalAlign=middle;resizable=0;points=[];autosize=1;strokeColor=none;fontSize=16;" vertex="1" parent="bDL4ATKbaho1a3p4V-Jz-1">
                    <mxGeometry x="880" y="110" width="120" height="20" as="geometry"/>
                </mxCell>
                <mxCell id="cTFWsZc5-iYyBP7X055F-18" value="Н1" style="edgeStyle=orthogonalEdgeStyle;rounded=0;orthogonalLoop=1;jettySize=auto;html=1;exitX=0;exitY=0.5;exitDx=0;exitDy=0;entryX=0;entryY=0.5;entryDx=0;entryDy=0;fontSize=16;" edge="1" parent="bDL4ATKbaho1a3p4V-Jz-1" source="cTFWsZc5-iYyBP7X055F-19" target="cTFWsZc5-iYyBP7X055F-21">
                    <mxGeometry relative="1" as="geometry"/>
                </mxCell>
                <mxCell id="cTFWsZc5-iYyBP7X055F-19" value="1. Нагреватель выключен" style="whiteSpace=wrap;html=1;fontSize=16;" vertex="1" parent="bDL4ATKbaho1a3p4V-Jz-1">
                    <mxGeometry x="870" y="280" width="140" height="60" as="geometry"/>
                </mxCell>
                <mxCell id="cTFWsZc5-iYyBP7X055F-20" value="Н2" style="edgeStyle=orthogonalEdgeStyle;rounded=0;orthogonalLoop=1;jettySize=auto;html=1;exitX=1;exitY=0.5;exitDx=0;exitDy=0;entryX=1;entryY=0.5;entryDx=0;entryDy=0;fontSize=16;" edge="1" parent="bDL4ATKbaho1a3p4V-Jz-1" source="cTFWsZc5-iYyBP7X055F-21" target="cTFWsZc5-iYyBP7X055F-19">
                    <mxGeometry relative="1" as="geometry"/>
                </mxCell>
                <mxCell id="cTFWsZc5-iYyBP7X055F-21" value="2. Нагреватель работает" style="whiteSpace=wrap;html=1;fontSize=16;" vertex="1" parent="bDL4ATKbaho1a3p4V-Jz-1">
                    <mxGeometry x="870" y="420" width="140" height="60" as="geometry"/>
                </mxCell>
                <mxCell id="cTFWsZc5-iYyBP7X055F-22" style="edgeStyle=orthogonalEdgeStyle;rounded=0;orthogonalLoop=1;jettySize=auto;html=1;exitX=0.5;exitY=1;exitDx=0;exitDy=0;entryX=0.5;entryY=0;entryDx=0;entryDy=0;fontSize=16;" edge="1" parent="bDL4ATKbaho1a3p4V-Jz-1" source="cTFWsZc5-iYyBP7X055F-23" target="cTFWsZc5-iYyBP7X055F-26">
                    <mxGeometry relative="1" as="geometry"/>
                </mxCell>
                <mxCell id="cTFWsZc5-iYyBP7X055F-23" value="" style="ellipse;whiteSpace=wrap;html=1;aspect=fixed;fontSize=16;" vertex="1" parent="bDL4ATKbaho1a3p4V-Jz-1">
                    <mxGeometry x="1310" y="170" width="60" height="60" as="geometry"/>
                </mxCell>
                <mxCell id="cTFWsZc5-iYyBP7X055F-24" value="&lt;b&gt;Вилка&lt;/b&gt;" style="text;html=1;align=center;verticalAlign=middle;resizable=0;points=[];autosize=1;strokeColor=none;fontSize=16;" vertex="1" parent="bDL4ATKbaho1a3p4V-Jz-1">
                    <mxGeometry x="1310" y="110" width="60" height="20" as="geometry"/>
                </mxCell>
                <mxCell id="cTFWsZc5-iYyBP7X055F-25" value="В1" style="edgeStyle=orthogonalEdgeStyle;rounded=0;orthogonalLoop=1;jettySize=auto;html=1;exitX=0;exitY=0.5;exitDx=0;exitDy=0;entryX=0;entryY=0.5;entryDx=0;entryDy=0;fontSize=16;" edge="1" parent="bDL4ATKbaho1a3p4V-Jz-1" source="cTFWsZc5-iYyBP7X055F-26" target="cTFWsZc5-iYyBP7X055F-28">
                    <mxGeometry relative="1" as="geometry"/>
                </mxCell>
                <mxCell id="cTFWsZc5-iYyBP7X055F-26" value="1. Вилка подключена к питанию" style="whiteSpace=wrap;html=1;fontSize=16;" vertex="1" parent="bDL4ATKbaho1a3p4V-Jz-1">
                    <mxGeometry x="1270" y="280" width="140" height="60" as="geometry"/>
                </mxCell>
                <mxCell id="cTFWsZc5-iYyBP7X055F-27" value="В2" style="edgeStyle=orthogonalEdgeStyle;rounded=0;orthogonalLoop=1;jettySize=auto;html=1;exitX=1;exitY=0.5;exitDx=0;exitDy=0;entryX=1;entryY=0.5;entryDx=0;entryDy=0;fontSize=16;" edge="1" parent="bDL4ATKbaho1a3p4V-Jz-1" source="cTFWsZc5-iYyBP7X055F-28" target="cTFWsZc5-iYyBP7X055F-26">
                    <mxGeometry relative="1" as="geometry"/>
                </mxCell>
                <mxCell id="cTFWsZc5-iYyBP7X055F-28" value="2. Вилка отключена от питания" style="whiteSpace=wrap;html=1;fontSize=16;" vertex="1" parent="bDL4ATKbaho1a3p4V-Jz-1">
                    <mxGeometry x="1270" y="420" width="140" height="60" as="geometry"/>
                </mxCell>
                <mxCell id="cTFWsZc5-iYyBP7X055F-29" style="edgeStyle=orthogonalEdgeStyle;rounded=0;orthogonalLoop=1;jettySize=auto;html=1;exitX=0.5;exitY=1;exitDx=0;exitDy=0;entryX=0.5;entryY=0;entryDx=0;entryDy=0;fontSize=16;" edge="1" parent="bDL4ATKbaho1a3p4V-Jz-1" source="cTFWsZc5-iYyBP7X055F-30" target="cTFWsZc5-iYyBP7X055F-33">
                    <mxGeometry relative="1" as="geometry"/>
                </mxCell>
                <mxCell id="cTFWsZc5-iYyBP7X055F-30" value="" style="ellipse;whiteSpace=wrap;html=1;aspect=fixed;fontSize=16;" vertex="1" parent="bDL4ATKbaho1a3p4V-Jz-1">
                    <mxGeometry x="1850" y="170" width="60" height="60" as="geometry"/>
                </mxCell>
                <mxCell id="cTFWsZc5-iYyBP7X055F-31" value="&lt;b&gt;Крышка&lt;/b&gt;" style="text;html=1;align=center;verticalAlign=middle;resizable=0;points=[];autosize=1;strokeColor=none;fontSize=16;" vertex="1" parent="bDL4ATKbaho1a3p4V-Jz-1">
                    <mxGeometry x="1840" y="110" width="80" height="20" as="geometry"/>
                </mxCell>
                <mxCell id="cTFWsZc5-iYyBP7X055F-32" value="К1" style="edgeStyle=orthogonalEdgeStyle;rounded=0;orthogonalLoop=1;jettySize=auto;html=1;exitX=0;exitY=0.5;exitDx=0;exitDy=0;entryX=0;entryY=0.25;entryDx=0;entryDy=0;fontSize=16;" edge="1" parent="bDL4ATKbaho1a3p4V-Jz-1" source="cTFWsZc5-iYyBP7X055F-33" target="cTFWsZc5-iYyBP7X055F-35">
                    <mxGeometry relative="1" as="geometry"/>
                </mxCell>
                <mxCell id="cTFWsZc5-iYyBP7X055F-33" value="1. Открыта" style="whiteSpace=wrap;html=1;fontSize=16;" vertex="1" parent="bDL4ATKbaho1a3p4V-Jz-1">
                    <mxGeometry x="1810" y="280" width="140" height="60" as="geometry"/>
                </mxCell>
                <mxCell id="cTFWsZc5-iYyBP7X055F-34" value="К2" style="edgeStyle=orthogonalEdgeStyle;rounded=0;orthogonalLoop=1;jettySize=auto;html=1;exitX=1;exitY=0.5;exitDx=0;exitDy=0;entryX=1;entryY=0.5;entryDx=0;entryDy=0;fontSize=16;" edge="1" parent="bDL4ATKbaho1a3p4V-Jz-1" source="cTFWsZc5-iYyBP7X055F-35" target="cTFWsZc5-iYyBP7X055F-33">
                    <mxGeometry relative="1" as="geometry">
                        <Array as="points">
                            <mxPoint x="1950" y="440"/>
                            <mxPoint x="1970" y="440"/>
                            <mxPoint x="1970" y="310"/>
                        </Array>
                    </mxGeometry>
                </mxCell>
                <mxCell id="cTFWsZc5-iYyBP7X055F-35" value="2. Закрыта" style="whiteSpace=wrap;html=1;fontSize=16;" vertex="1" parent="bDL4ATKbaho1a3p4V-Jz-1">
                    <mxGeometry x="1810" y="420" width="140" height="60" as="geometry"/>
                </mxCell>
                <mxCell id="cTFWsZc5-iYyBP7X055F-36" style="edgeStyle=orthogonalEdgeStyle;rounded=0;orthogonalLoop=1;jettySize=auto;html=1;exitX=0.5;exitY=1;exitDx=0;exitDy=0;entryX=0.5;entryY=0;entryDx=0;entryDy=0;fontSize=16;" edge="1" parent="bDL4ATKbaho1a3p4V-Jz-1" source="cTFWsZc5-iYyBP7X055F-37" target="cTFWsZc5-iYyBP7X055F-40">
                    <mxGeometry relative="1" as="geometry"/>
                </mxCell>
                <mxCell id="cTFWsZc5-iYyBP7X055F-37" value="" style="ellipse;whiteSpace=wrap;html=1;aspect=fixed;fontSize=16;" vertex="1" parent="bDL4ATKbaho1a3p4V-Jz-1">
                    <mxGeometry x="910" y="690" width="60" height="60" as="geometry"/>
                </mxCell>
                <mxCell id="cTFWsZc5-iYyBP7X055F-38" value="&lt;b&gt;Выключатель&lt;/b&gt;" style="text;html=1;align=center;verticalAlign=middle;resizable=0;points=[];autosize=1;strokeColor=none;fontSize=16;" vertex="1" parent="bDL4ATKbaho1a3p4V-Jz-1">
                    <mxGeometry x="875" y="630" width="130" height="20" as="geometry"/>
                </mxCell>
                <mxCell id="cTFWsZc5-iYyBP7X055F-39" value="ВКЛ1" style="edgeStyle=orthogonalEdgeStyle;rounded=0;orthogonalLoop=1;jettySize=auto;html=1;exitX=0;exitY=0.5;exitDx=0;exitDy=0;entryX=0;entryY=0.5;entryDx=0;entryDy=0;fontSize=16;" edge="1" parent="bDL4ATKbaho1a3p4V-Jz-1" source="cTFWsZc5-iYyBP7X055F-40" target="cTFWsZc5-iYyBP7X055F-42">
                    <mxGeometry relative="1" as="geometry"/>
                </mxCell>
                <mxCell id="cTFWsZc5-iYyBP7X055F-40" value="1. Выключен" style="whiteSpace=wrap;html=1;fontSize=16;" vertex="1" parent="bDL4ATKbaho1a3p4V-Jz-1">
                    <mxGeometry x="870" y="800" width="140" height="60" as="geometry"/>
                </mxCell>
                <mxCell id="cTFWsZc5-iYyBP7X055F-41" value="ВКЛ2" style="edgeStyle=orthogonalEdgeStyle;rounded=0;orthogonalLoop=1;jettySize=auto;html=1;exitX=1;exitY=0.5;exitDx=0;exitDy=0;entryX=1;entryY=0.5;entryDx=0;entryDy=0;fontSize=16;" edge="1" parent="bDL4ATKbaho1a3p4V-Jz-1" source="cTFWsZc5-iYyBP7X055F-42" target="cTFWsZc5-iYyBP7X055F-40">
                    <mxGeometry relative="1" as="geometry"/>
                </mxCell>
                <mxCell id="cTFWsZc5-iYyBP7X055F-42" value="2. Включен" style="whiteSpace=wrap;html=1;fontSize=16;" vertex="1" parent="bDL4ATKbaho1a3p4V-Jz-1">
                    <mxGeometry x="870" y="940" width="140" height="60" as="geometry"/>
                </mxCell>
                <mxCell id="cTFWsZc5-iYyBP7X055F-43" style="edgeStyle=orthogonalEdgeStyle;rounded=0;orthogonalLoop=1;jettySize=auto;html=1;exitX=0.5;exitY=1;exitDx=0;exitDy=0;entryX=0.5;entryY=0;entryDx=0;entryDy=0;fontSize=16;" edge="1" parent="bDL4ATKbaho1a3p4V-Jz-1" source="cTFWsZc5-iYyBP7X055F-44" target="cTFWsZc5-iYyBP7X055F-47">
                    <mxGeometry relative="1" as="geometry"/>
                </mxCell>
                <mxCell id="cTFWsZc5-iYyBP7X055F-44" value="" style="ellipse;whiteSpace=wrap;html=1;aspect=fixed;fontSize=16;" vertex="1" parent="bDL4ATKbaho1a3p4V-Jz-1">
                    <mxGeometry x="1300" y="690" width="60" height="60" as="geometry"/>
                </mxCell>
                <mxCell id="cTFWsZc5-iYyBP7X055F-45" value="&lt;b&gt;Датчик температуры&lt;/b&gt;" style="text;html=1;align=center;verticalAlign=middle;resizable=0;points=[];autosize=1;strokeColor=none;fontSize=16;" vertex="1" parent="bDL4ATKbaho1a3p4V-Jz-1">
                    <mxGeometry x="1240" y="630" width="180" height="20" as="geometry"/>
                </mxCell>
                <mxCell id="cTFWsZc5-iYyBP7X055F-46" value="ДТ1" style="edgeStyle=orthogonalEdgeStyle;rounded=0;orthogonalLoop=1;jettySize=auto;html=1;exitX=0;exitY=0.5;exitDx=0;exitDy=0;entryX=0;entryY=0.25;entryDx=0;entryDy=0;fontSize=16;" edge="1" parent="bDL4ATKbaho1a3p4V-Jz-1" source="cTFWsZc5-iYyBP7X055F-47" target="cTFWsZc5-iYyBP7X055F-50">
                    <mxGeometry relative="1" as="geometry"/>
                </mxCell>
                <mxCell id="cTFWsZc5-iYyBP7X055F-47" value="1. Выключен" style="whiteSpace=wrap;html=1;fontSize=16;" vertex="1" parent="bDL4ATKbaho1a3p4V-Jz-1">
                    <mxGeometry x="1260" y="800" width="140" height="60" as="geometry"/>
                </mxCell>
                <mxCell id="cTFWsZc5-iYyBP7X055F-48" value="ДТ2" style="edgeStyle=orthogonalEdgeStyle;rounded=0;orthogonalLoop=1;jettySize=auto;html=1;exitX=1;exitY=0.25;exitDx=0;exitDy=0;entryX=1;entryY=0.75;entryDx=0;entryDy=0;fontSize=16;" edge="1" parent="bDL4ATKbaho1a3p4V-Jz-1" source="cTFWsZc5-iYyBP7X055F-50" target="cTFWsZc5-iYyBP7X055F-47">
                    <mxGeometry relative="1" as="geometry"/>
                </mxCell>
                <mxCell id="cTFWsZc5-iYyBP7X055F-49" value="ДТ3" style="edgeStyle=orthogonalEdgeStyle;rounded=0;orthogonalLoop=1;jettySize=auto;html=1;exitX=0;exitY=0.75;exitDx=0;exitDy=0;entryX=0;entryY=0.5;entryDx=0;entryDy=0;fontSize=16;" edge="1" parent="bDL4ATKbaho1a3p4V-Jz-1" source="cTFWsZc5-iYyBP7X055F-50" target="cTFWsZc5-iYyBP7X055F-53">
                    <mxGeometry relative="1" as="geometry"/>
                </mxCell>
                <mxCell id="cTFWsZc5-iYyBP7X055F-50" value="2. Температура меньше необходимой" style="whiteSpace=wrap;html=1;fontSize=16;" vertex="1" parent="bDL4ATKbaho1a3p4V-Jz-1">
                    <mxGeometry x="1260" y="940" width="140" height="60" as="geometry"/>
                </mxCell>
                <mxCell id="cTFWsZc5-iYyBP7X055F-51" value="ДТ4" style="edgeStyle=orthogonalEdgeStyle;rounded=0;orthogonalLoop=1;jettySize=auto;html=1;exitX=1;exitY=0.5;exitDx=0;exitDy=0;entryX=1;entryY=0.75;entryDx=0;entryDy=0;fontSize=16;" edge="1" parent="bDL4ATKbaho1a3p4V-Jz-1" source="cTFWsZc5-iYyBP7X055F-53" target="cTFWsZc5-iYyBP7X055F-50">
                    <mxGeometry relative="1" as="geometry"/>
                </mxCell>
                <mxCell id="cTFWsZc5-iYyBP7X055F-52" value="ДТ2" style="edgeStyle=orthogonalEdgeStyle;rounded=0;orthogonalLoop=1;jettySize=auto;html=1;exitX=1;exitY=0.75;exitDx=0;exitDy=0;entryX=1;entryY=0.25;entryDx=0;entryDy=0;fontSize=16;" edge="1" parent="bDL4ATKbaho1a3p4V-Jz-1" source="cTFWsZc5-iYyBP7X055F-53" target="cTFWsZc5-iYyBP7X055F-47">
                    <mxGeometry relative="1" as="geometry">
                        <Array as="points">
                            <mxPoint x="1470" y="1125"/>
                            <mxPoint x="1470" y="815"/>
                        </Array>
                    </mxGeometry>
                </mxCell>
                <mxCell id="cTFWsZc5-iYyBP7X055F-53" value="3. Необходимая температура" style="whiteSpace=wrap;html=1;fontSize=16;" vertex="1" parent="bDL4ATKbaho1a3p4V-Jz-1">
                    <mxGeometry x="1260" y="1080" width="140" height="60" as="geometry"/>
                </mxCell>
            </root>
        </mxGraphModel>
    </diagram>
    <diagram id="DkkuUZsaWc6ygFvG0ShQ" name="dpdd">
        <mxGraphModel dx="1350" dy="803" grid="1" gridSize="10" guides="1" tooltips="1" connect="1" arrows="1" fold="1" page="1" pageScale="1" pageWidth="4681" pageHeight="3300" math="0" shadow="0">
            <root>
                <mxCell id="qxxu5KFsJdhoy5NHSmS5-0"/>
                <mxCell id="qxxu5KFsJdhoy5NHSmS5-1" parent="qxxu5KFsJdhoy5NHSmS5-0"/>
                <mxCell id="NwS2kq2DHyoZuXV8Ss02-0" value="&lt;font style=&quot;font-size: 32px&quot;&gt;&lt;b&gt;Диаграмма Потоковых Данных Действий (ДПДД)&lt;br&gt;&lt;/b&gt;&lt;/font&gt;" style="text;html=1;align=center;verticalAlign=middle;resizable=0;points=[];autosize=1;strokeColor=none;fillColor=none;" vertex="1" parent="qxxu5KFsJdhoy5NHSmS5-1">
                    <mxGeometry x="375" y="45" width="790" height="30" as="geometry"/>
                </mxCell>
                <mxCell id="NwS2kq2DHyoZuXV8Ss02-1" style="edgeStyle=orthogonalEdgeStyle;rounded=0;orthogonalLoop=1;jettySize=auto;html=1;exitX=0.5;exitY=0;exitDx=0;exitDy=0;endArrow=none;endFill=0;startArrow=classic;startFill=1;" edge="1" parent="qxxu5KFsJdhoy5NHSmS5-1" source="NwS2kq2DHyoZuXV8Ss02-3">
                    <mxGeometry relative="1" as="geometry">
                        <mxPoint x="290" y="140" as="targetPoint"/>
                    </mxGeometry>
                </mxCell>
                <mxCell id="NwS2kq2DHyoZuXV8Ss02-2" style="edgeStyle=orthogonalEdgeStyle;rounded=0;orthogonalLoop=1;jettySize=auto;html=1;exitX=0.5;exitY=1;exitDx=0;exitDy=0;entryX=0.5;entryY=0;entryDx=0;entryDy=0;dashed=1;startArrow=none;startFill=0;endArrow=classic;endFill=1;" edge="1" parent="qxxu5KFsJdhoy5NHSmS5-1" source="NwS2kq2DHyoZuXV8Ss02-3" target="NwS2kq2DHyoZuXV8Ss02-6">
                    <mxGeometry relative="1" as="geometry"/>
                </mxCell>
                <mxCell id="NwS2kq2DHyoZuXV8Ss02-3" value="ДТЧ1. Принять событие" style="ellipse;whiteSpace=wrap;html=1;fontSize=16;" vertex="1" parent="qxxu5KFsJdhoy5NHSmS5-1">
                    <mxGeometry x="190" y="220" width="200" height="80" as="geometry"/>
                </mxCell>
                <mxCell id="NwS2kq2DHyoZuXV8Ss02-4" value="&lt;font style=&quot;font-size: 16px&quot;&gt;Состояние == Выключен&lt;/font&gt;" style="edgeStyle=orthogonalEdgeStyle;rounded=0;orthogonalLoop=1;jettySize=auto;html=1;exitX=1;exitY=1;exitDx=0;exitDy=0;entryX=0.5;entryY=1;entryDx=0;entryDy=0;dashed=1;" edge="1" parent="qxxu5KFsJdhoy5NHSmS5-1" source="NwS2kq2DHyoZuXV8Ss02-6" target="NwS2kq2DHyoZuXV8Ss02-13">
                    <mxGeometry relative="1" as="geometry">
                        <Array as="points">
                            <mxPoint x="361" y="610"/>
                            <mxPoint x="1110" y="610"/>
                        </Array>
                    </mxGeometry>
                </mxCell>
                <mxCell id="NwS2kq2DHyoZuXV8Ss02-5" value="&lt;font style=&quot;font-size: 16px&quot;&gt;Состояние == Включен&lt;/font&gt;" style="edgeStyle=orthogonalEdgeStyle;rounded=0;orthogonalLoop=1;jettySize=auto;html=1;exitX=0.5;exitY=1;exitDx=0;exitDy=0;entryX=0.5;entryY=0;entryDx=0;entryDy=0;dashed=1;" edge="1" parent="qxxu5KFsJdhoy5NHSmS5-1" source="NwS2kq2DHyoZuXV8Ss02-6" target="NwS2kq2DHyoZuXV8Ss02-18">
                    <mxGeometry relative="1" as="geometry"/>
                </mxCell>
                <mxCell id="NwS2kq2DHyoZuXV8Ss02-6" value="ДТЧ2. Проверить состояние" style="ellipse;whiteSpace=wrap;html=1;fontSize=16;" vertex="1" parent="qxxu5KFsJdhoy5NHSmS5-1">
                    <mxGeometry x="190" y="490" width="200" height="80" as="geometry"/>
                </mxCell>
                <mxCell id="NwS2kq2DHyoZuXV8Ss02-7" value="&lt;font style=&quot;font-size: 16px&quot;&gt;Состояние&lt;/font&gt;" style="edgeStyle=orthogonalEdgeStyle;rounded=0;orthogonalLoop=1;jettySize=auto;html=1;exitX=0.5;exitY=1;exitDx=0;exitDy=0;startArrow=none;startFill=0;endArrow=classic;endFill=1;entryX=0.5;entryY=0;entryDx=0;entryDy=0;" edge="1" parent="qxxu5KFsJdhoy5NHSmS5-1" source="NwS2kq2DHyoZuXV8Ss02-8" target="NwS2kq2DHyoZuXV8Ss02-10">
                    <mxGeometry relative="1" as="geometry">
                        <mxPoint x="690" y="310" as="targetPoint"/>
                    </mxGeometry>
                </mxCell>
                <mxCell id="NwS2kq2DHyoZuXV8Ss02-8" value="&lt;font style=&quot;font-size: 16px&quot;&gt;Нагреватель&lt;/font&gt;" style="shape=partialRectangle;whiteSpace=wrap;html=1;left=0;right=0;fillColor=none;" vertex="1" parent="qxxu5KFsJdhoy5NHSmS5-1">
                    <mxGeometry x="610" y="150" width="160" height="60" as="geometry"/>
                </mxCell>
                <mxCell id="NwS2kq2DHyoZuXV8Ss02-9" value="&lt;font style=&quot;font-size: 16px&quot;&gt;Состояние&lt;/font&gt;" style="edgeStyle=orthogonalEdgeStyle;rounded=0;orthogonalLoop=1;jettySize=auto;html=1;exitX=0.5;exitY=1;exitDx=0;exitDy=0;entryX=1;entryY=0.5;entryDx=0;entryDy=0;" edge="1" parent="qxxu5KFsJdhoy5NHSmS5-1" source="NwS2kq2DHyoZuXV8Ss02-10" target="NwS2kq2DHyoZuXV8Ss02-6">
                    <mxGeometry relative="1" as="geometry"/>
                </mxCell>
                <mxCell id="NwS2kq2DHyoZuXV8Ss02-10" value="ДТЧ3. Считать состояние" style="ellipse;whiteSpace=wrap;html=1;fontSize=16;" vertex="1" parent="qxxu5KFsJdhoy5NHSmS5-1">
                    <mxGeometry x="590" y="320" width="200" height="80" as="geometry"/>
                </mxCell>
                <mxCell id="NwS2kq2DHyoZuXV8Ss02-11" value="&lt;font style=&quot;font-size: 16px&quot;&gt;Состояние и температура&lt;/font&gt;" style="edgeStyle=orthogonalEdgeStyle;rounded=0;orthogonalLoop=1;jettySize=auto;html=1;exitX=0.5;exitY=0;exitDx=0;exitDy=0;entryX=1;entryY=0.5;entryDx=0;entryDy=0;" edge="1" parent="qxxu5KFsJdhoy5NHSmS5-1" source="NwS2kq2DHyoZuXV8Ss02-13" target="NwS2kq2DHyoZuXV8Ss02-8">
                    <mxGeometry relative="1" as="geometry">
                        <mxPoint x="1160" y="340" as="targetPoint"/>
                        <Array as="points">
                            <mxPoint x="1110" y="180"/>
                        </Array>
                    </mxGeometry>
                </mxCell>
                <mxCell id="NwS2kq2DHyoZuXV8Ss02-12" style="edgeStyle=orthogonalEdgeStyle;rounded=0;orthogonalLoop=1;jettySize=auto;html=1;exitX=1;exitY=1;exitDx=0;exitDy=0;entryX=0.5;entryY=0;entryDx=0;entryDy=0;dashed=1;" edge="1" parent="qxxu5KFsJdhoy5NHSmS5-1" source="NwS2kq2DHyoZuXV8Ss02-13" target="NwS2kq2DHyoZuXV8Ss02-15">
                    <mxGeometry relative="1" as="geometry"/>
                </mxCell>
                <mxCell id="NwS2kq2DHyoZuXV8Ss02-13" value="ДТЧ4. Записать состояние &quot;Включен&quot; и температуру" style="ellipse;whiteSpace=wrap;html=1;fontSize=16;" vertex="1" parent="qxxu5KFsJdhoy5NHSmS5-1">
                    <mxGeometry x="1010" y="490" width="200" height="80" as="geometry"/>
                </mxCell>
                <mxCell id="NwS2kq2DHyoZuXV8Ss02-14" style="edgeStyle=orthogonalEdgeStyle;rounded=0;orthogonalLoop=1;jettySize=auto;html=1;exitX=1;exitY=0.5;exitDx=0;exitDy=0;" edge="1" parent="qxxu5KFsJdhoy5NHSmS5-1" source="NwS2kq2DHyoZuXV8Ss02-15">
                    <mxGeometry relative="1" as="geometry">
                        <mxPoint x="1600" y="730" as="targetPoint"/>
                    </mxGeometry>
                </mxCell>
                <mxCell id="NwS2kq2DHyoZuXV8Ss02-15" value="ДТЧ5. Породить событие ДТ1" style="ellipse;whiteSpace=wrap;html=1;fontSize=16;" vertex="1" parent="qxxu5KFsJdhoy5NHSmS5-1">
                    <mxGeometry x="1310" y="690" width="200" height="80" as="geometry"/>
                </mxCell>
                <mxCell id="NwS2kq2DHyoZuXV8Ss02-16" value="&lt;font style=&quot;font-size: 16px&quot;&gt;Температура&lt;/font&gt;" style="edgeStyle=orthogonalEdgeStyle;rounded=0;orthogonalLoop=1;jettySize=auto;html=1;exitX=1;exitY=0.5;exitDx=0;exitDy=0;entryX=0;entryY=0.5;entryDx=0;entryDy=0;" edge="1" parent="qxxu5KFsJdhoy5NHSmS5-1" source="NwS2kq2DHyoZuXV8Ss02-18" target="NwS2kq2DHyoZuXV8Ss02-20">
                    <mxGeometry relative="1" as="geometry"/>
                </mxCell>
                <mxCell id="NwS2kq2DHyoZuXV8Ss02-17" style="edgeStyle=orthogonalEdgeStyle;rounded=0;orthogonalLoop=1;jettySize=auto;html=1;exitX=0.5;exitY=1;exitDx=0;exitDy=0;entryX=0.5;entryY=0;entryDx=0;entryDy=0;dashed=1;" edge="1" parent="qxxu5KFsJdhoy5NHSmS5-1" source="NwS2kq2DHyoZuXV8Ss02-18" target="NwS2kq2DHyoZuXV8Ss02-24">
                    <mxGeometry relative="1" as="geometry"/>
                </mxCell>
                <mxCell id="NwS2kq2DHyoZuXV8Ss02-18" value="ДТЧ6. Записать температуру" style="ellipse;whiteSpace=wrap;html=1;fontSize=16;" vertex="1" parent="qxxu5KFsJdhoy5NHSmS5-1">
                    <mxGeometry x="190" y="730" width="200" height="80" as="geometry"/>
                </mxCell>
                <mxCell id="NwS2kq2DHyoZuXV8Ss02-19" value="&lt;font style=&quot;font-size: 16px&quot;&gt;Температура&lt;/font&gt;" style="edgeStyle=orthogonalEdgeStyle;rounded=0;orthogonalLoop=1;jettySize=auto;html=1;exitX=0.5;exitY=1;exitDx=0;exitDy=0;entryX=0.5;entryY=0;entryDx=0;entryDy=0;" edge="1" parent="qxxu5KFsJdhoy5NHSmS5-1" source="NwS2kq2DHyoZuXV8Ss02-20" target="NwS2kq2DHyoZuXV8Ss02-26">
                    <mxGeometry relative="1" as="geometry"/>
                </mxCell>
                <mxCell id="NwS2kq2DHyoZuXV8Ss02-20" value="&lt;font style=&quot;font-size: 16px&quot;&gt;Нагреватель&lt;/font&gt;" style="shape=partialRectangle;whiteSpace=wrap;html=1;left=0;right=0;fillColor=none;" vertex="1" parent="qxxu5KFsJdhoy5NHSmS5-1">
                    <mxGeometry x="610" y="740" width="160" height="60" as="geometry"/>
                </mxCell>
                <mxCell id="NwS2kq2DHyoZuXV8Ss02-21" value="&lt;font style=&quot;font-size: 16px&quot;&gt;Не нагрелся&lt;/font&gt;" style="edgeStyle=orthogonalEdgeStyle;rounded=0;orthogonalLoop=1;jettySize=auto;html=1;exitX=0.5;exitY=1;exitDx=0;exitDy=0;entryX=0.5;entryY=1;entryDx=0;entryDy=0;dashed=1;" edge="1" parent="qxxu5KFsJdhoy5NHSmS5-1" source="NwS2kq2DHyoZuXV8Ss02-24" target="NwS2kq2DHyoZuXV8Ss02-15">
                    <mxGeometry relative="1" as="geometry"/>
                </mxCell>
                <mxCell id="NwS2kq2DHyoZuXV8Ss02-22" style="edgeStyle=orthogonalEdgeStyle;rounded=0;orthogonalLoop=1;jettySize=auto;html=1;exitX=0;exitY=1;exitDx=0;exitDy=0;entryX=0;entryY=0.5;entryDx=0;entryDy=0;dashed=1;" edge="1" parent="qxxu5KFsJdhoy5NHSmS5-1" source="NwS2kq2DHyoZuXV8Ss02-24" target="NwS2kq2DHyoZuXV8Ss02-28">
                    <mxGeometry relative="1" as="geometry">
                        <Array as="points">
                            <mxPoint x="219" y="1210"/>
                        </Array>
                    </mxGeometry>
                </mxCell>
                <mxCell id="NwS2kq2DHyoZuXV8Ss02-23" value="&lt;font style=&quot;font-size: 16px&quot;&gt;Нагрелся&lt;/font&gt;" style="edgeLabel;html=1;align=center;verticalAlign=middle;resizable=0;points=[];" vertex="1" connectable="0" parent="NwS2kq2DHyoZuXV8Ss02-22">
                    <mxGeometry x="0.0182" y="2" relative="1" as="geometry">
                        <mxPoint as="offset"/>
                    </mxGeometry>
                </mxCell>
                <mxCell id="NwS2kq2DHyoZuXV8Ss02-24" value="ДТЧ7. Проверить температуру" style="ellipse;whiteSpace=wrap;html=1;fontSize=16;" vertex="1" parent="qxxu5KFsJdhoy5NHSmS5-1">
                    <mxGeometry x="190" y="950" width="200" height="80" as="geometry"/>
                </mxCell>
                <mxCell id="NwS2kq2DHyoZuXV8Ss02-25" value="&lt;font style=&quot;font-size: 16px&quot;&gt;Температура&lt;/font&gt;" style="edgeStyle=orthogonalEdgeStyle;rounded=0;orthogonalLoop=1;jettySize=auto;html=1;exitX=0;exitY=0.5;exitDx=0;exitDy=0;entryX=1;entryY=0.5;entryDx=0;entryDy=0;" edge="1" parent="qxxu5KFsJdhoy5NHSmS5-1" source="NwS2kq2DHyoZuXV8Ss02-26" target="NwS2kq2DHyoZuXV8Ss02-24">
                    <mxGeometry relative="1" as="geometry"/>
                </mxCell>
                <mxCell id="NwS2kq2DHyoZuXV8Ss02-26" value="ДТЧ8. Считать температуру" style="ellipse;whiteSpace=wrap;html=1;fontSize=16;" vertex="1" parent="qxxu5KFsJdhoy5NHSmS5-1">
                    <mxGeometry x="590" y="890" width="200" height="80" as="geometry"/>
                </mxCell>
                <mxCell id="NwS2kq2DHyoZuXV8Ss02-27" style="edgeStyle=orthogonalEdgeStyle;rounded=0;orthogonalLoop=1;jettySize=auto;html=1;exitX=1;exitY=0.5;exitDx=0;exitDy=0;" edge="1" parent="qxxu5KFsJdhoy5NHSmS5-1" source="NwS2kq2DHyoZuXV8Ss02-28">
                    <mxGeometry relative="1" as="geometry">
                        <mxPoint x="1250" y="1210" as="targetPoint"/>
                    </mxGeometry>
                </mxCell>
                <mxCell id="NwS2kq2DHyoZuXV8Ss02-28" value="ДТЧ9. Породить событие ДТ2" style="ellipse;whiteSpace=wrap;html=1;fontSize=16;" vertex="1" parent="qxxu5KFsJdhoy5NHSmS5-1">
                    <mxGeometry x="930" y="1170" width="200" height="80" as="geometry"/>
                </mxCell>
            </root>
        </mxGraphModel>
    </diagram>
    <diagram id="zIQNcmYtvlZWzRohGk5I" name="canal_guide">
        <mxGraphModel dx="803" dy="605" grid="1" gridSize="10" guides="1" tooltips="1" connect="1" arrows="1" fold="1" page="1" pageScale="1" pageWidth="4681" pageHeight="3300" math="0" shadow="0">
            <root>
                <mxCell id="TUwz2oIyPuxpNxXvPOPZ-0"/>
                <mxCell id="TUwz2oIyPuxpNxXvPOPZ-1" parent="TUwz2oIyPuxpNxXvPOPZ-0"/>
                <mxCell id="pZlFu3ug4XG7J28i3lUR-0" value="&lt;font style=&quot;font-size: 32px&quot;&gt;&lt;b&gt;Канал Управления&lt;br&gt;&lt;/b&gt;&lt;/font&gt;" style="text;html=1;align=center;verticalAlign=middle;resizable=0;points=[];autosize=1;strokeColor=none;fillColor=none;" parent="TUwz2oIyPuxpNxXvPOPZ-1" vertex="1">
                    <mxGeometry x="620" y="30" width="310" height="30" as="geometry"/>
                </mxCell>
                <mxCell id="pZlFu3ug4XG7J28i3lUR-1" value="&lt;font style=&quot;font-size: 16px&quot;&gt;Вилка подключена к сети&lt;br&gt;Выключатель &quot;Включен&quot;&lt;/font&gt;" style="edgeStyle=orthogonalEdgeStyle;rounded=0;orthogonalLoop=1;jettySize=auto;html=1;startArrow=classic;startFill=1;endArrow=none;endFill=0;" parent="TUwz2oIyPuxpNxXvPOPZ-1" edge="1">
                    <mxGeometry relative="1" as="geometry">
                        <mxPoint x="343.75" y="120" as="targetPoint"/>
                        <mxPoint x="343.75" y="210" as="sourcePoint"/>
                    </mxGeometry>
                </mxCell>
                <mxCell id="pZlFu3ug4XG7J28i3lUR-2" value="&lt;b&gt;Электрочайник&lt;/b&gt;" style="text;html=1;align=center;verticalAlign=middle;resizable=0;points=[];autosize=1;strokeColor=none;fontSize=16;" parent="TUwz2oIyPuxpNxXvPOPZ-1" vertex="1">
                    <mxGeometry x="273.75" y="90" width="140" height="20" as="geometry"/>
                </mxCell>
                <mxCell id="pZlFu3ug4XG7J28i3lUR-3" style="edgeStyle=orthogonalEdgeStyle;rounded=0;orthogonalLoop=1;jettySize=auto;html=1;exitX=0.5;exitY=1;exitDx=0;exitDy=0;entryX=0.5;entryY=0;entryDx=0;entryDy=0;fontSize=16;startArrow=none;startFill=0;" parent="TUwz2oIyPuxpNxXvPOPZ-1" source="pZlFu3ug4XG7J28i3lUR-5" target="pZlFu3ug4XG7J28i3lUR-10" edge="1">
                    <mxGeometry relative="1" as="geometry"/>
                </mxCell>
                <mxCell id="pZlFu3ug4XG7J28i3lUR-4" style="edgeStyle=orthogonalEdgeStyle;rounded=0;orthogonalLoop=1;jettySize=auto;html=1;exitX=1;exitY=0.5;exitDx=0;exitDy=0;" parent="TUwz2oIyPuxpNxXvPOPZ-1" source="pZlFu3ug4XG7J28i3lUR-5" edge="1">
                    <mxGeometry relative="1" as="geometry">
                        <mxPoint x="1290" y="350" as="targetPoint"/>
                        <mxPoint x="73.75" y="350" as="sourcePoint"/>
                        <Array as="points">
                            <mxPoint x="503.75" y="330"/>
                            <mxPoint x="503.75" y="510"/>
                            <mxPoint x="1129.75" y="510"/>
                            <mxPoint x="1129.75" y="350"/>
                        </Array>
                    </mxGeometry>
                </mxCell>
                <mxCell id="pZlFu3ug4XG7J28i3lUR-5" value="Включается" style="rounded=0;whiteSpace=wrap;html=1;fontSize=16;" parent="TUwz2oIyPuxpNxXvPOPZ-1" vertex="1">
                    <mxGeometry x="260" y="300" width="167.5" height="60" as="geometry"/>
                </mxCell>
                <mxCell id="pZlFu3ug4XG7J28i3lUR-6" style="edgeStyle=orthogonalEdgeStyle;rounded=0;orthogonalLoop=1;jettySize=auto;html=1;exitX=0.5;exitY=1;exitDx=0;exitDy=0;entryX=0.5;entryY=0;entryDx=0;entryDy=0;fontSize=16;startArrow=none;startFill=0;" parent="TUwz2oIyPuxpNxXvPOPZ-1" source="pZlFu3ug4XG7J28i3lUR-10" target="pZlFu3ug4XG7J28i3lUR-13" edge="1">
                    <mxGeometry relative="1" as="geometry"/>
                </mxCell>
                <mxCell id="pZlFu3ug4XG7J28i3lUR-7" style="edgeStyle=orthogonalEdgeStyle;rounded=0;orthogonalLoop=1;jettySize=auto;html=1;fontSize=16;startArrow=none;startFill=0;exitX=1;exitY=0.75;exitDx=0;exitDy=0;" parent="TUwz2oIyPuxpNxXvPOPZ-1" source="pZlFu3ug4XG7J28i3lUR-10" edge="1">
                    <mxGeometry relative="1" as="geometry">
                        <Array as="points">
                            <mxPoint x="427.75" y="585"/>
                        </Array>
                        <mxPoint x="969" y="585" as="targetPoint"/>
                        <mxPoint x="433.75" y="595" as="sourcePoint"/>
                    </mxGeometry>
                </mxCell>
                <mxCell id="pZlFu3ug4XG7J28i3lUR-8" style="edgeStyle=orthogonalEdgeStyle;rounded=0;orthogonalLoop=1;jettySize=auto;html=1;exitX=1;exitY=0.25;exitDx=0;exitDy=0;" parent="TUwz2oIyPuxpNxXvPOPZ-1" source="pZlFu3ug4XG7J28i3lUR-10" edge="1">
                    <mxGeometry relative="1" as="geometry">
                        <mxPoint x="963.75" y="390.0000000000002" as="targetPoint"/>
                        <Array as="points">
                            <mxPoint x="593.75" y="545"/>
                            <mxPoint x="593.75" y="390"/>
                        </Array>
                    </mxGeometry>
                </mxCell>
                <mxCell id="pZlFu3ug4XG7J28i3lUR-9" style="edgeStyle=orthogonalEdgeStyle;rounded=0;orthogonalLoop=1;jettySize=auto;html=1;exitX=1;exitY=0.5;exitDx=0;exitDy=0;" parent="TUwz2oIyPuxpNxXvPOPZ-1" source="pZlFu3ug4XG7J28i3lUR-10" edge="1">
                    <mxGeometry relative="1" as="geometry">
                        <mxPoint x="1293.75" y="499.9999999999998" as="targetPoint"/>
                        <Array as="points">
                            <mxPoint x="1163.75" y="560"/>
                            <mxPoint x="1163.75" y="500"/>
                        </Array>
                    </mxGeometry>
                </mxCell>
                <mxCell id="pZlFu3ug4XG7J28i3lUR-10" value="Нагрев воды" style="rounded=0;whiteSpace=wrap;html=1;fontSize=16;" parent="TUwz2oIyPuxpNxXvPOPZ-1" vertex="1">
                    <mxGeometry x="260" y="530" width="167.5" height="60" as="geometry"/>
                </mxCell>
                <mxCell id="pZlFu3ug4XG7J28i3lUR-11" style="edgeStyle=orthogonalEdgeStyle;rounded=0;orthogonalLoop=1;jettySize=auto;html=1;exitX=0.5;exitY=1;exitDx=0;exitDy=0;entryX=0.5;entryY=0;entryDx=0;entryDy=0;fontSize=16;startArrow=none;startFill=0;" parent="TUwz2oIyPuxpNxXvPOPZ-1" source="pZlFu3ug4XG7J28i3lUR-13" target="pZlFu3ug4XG7J28i3lUR-14" edge="1">
                    <mxGeometry relative="1" as="geometry"/>
                </mxCell>
                <mxCell id="pZlFu3ug4XG7J28i3lUR-12" style="edgeStyle=orthogonalEdgeStyle;rounded=0;orthogonalLoop=1;jettySize=auto;html=1;exitX=1;exitY=0.5;exitDx=0;exitDy=0;" parent="TUwz2oIyPuxpNxXvPOPZ-1" source="pZlFu3ug4XG7J28i3lUR-13" edge="1">
                    <mxGeometry relative="1" as="geometry">
                        <mxPoint x="1280" y="619.9999999999998" as="targetPoint"/>
                        <mxPoint x="73.75" y="674.9999999999998" as="sourcePoint"/>
                        <Array as="points">
                            <mxPoint x="474" y="670"/>
                            <mxPoint x="474" y="620"/>
                        </Array>
                    </mxGeometry>
                </mxCell>
                <mxCell id="pZlFu3ug4XG7J28i3lUR-13" value="Отключается" style="rounded=0;whiteSpace=wrap;html=1;fontSize=16;" parent="TUwz2oIyPuxpNxXvPOPZ-1" vertex="1">
                    <mxGeometry x="260" y="640" width="167.5" height="60" as="geometry"/>
                </mxCell>
                <mxCell id="pZlFu3ug4XG7J28i3lUR-14" value="Выключен" style="rounded=0;whiteSpace=wrap;html=1;fontSize=16;" parent="TUwz2oIyPuxpNxXvPOPZ-1" vertex="1">
                    <mxGeometry x="260" y="800" width="167.5" height="60" as="geometry"/>
                </mxCell>
                <mxCell id="pZlFu3ug4XG7J28i3lUR-15" style="edgeStyle=orthogonalEdgeStyle;rounded=0;orthogonalLoop=1;jettySize=auto;html=1;exitX=0.5;exitY=1;exitDx=0;exitDy=0;entryX=0.5;entryY=0;entryDx=0;entryDy=0;fontSize=16;startArrow=none;startFill=0;" parent="TUwz2oIyPuxpNxXvPOPZ-1" source="pZlFu3ug4XG7J28i3lUR-16" target="pZlFu3ug4XG7J28i3lUR-18" edge="1">
                    <mxGeometry relative="1" as="geometry"/>
                </mxCell>
                <mxCell id="pZlFu3ug4XG7J28i3lUR-16" value="Выключен" style="rounded=0;whiteSpace=wrap;html=1;fontSize=16;" parent="TUwz2oIyPuxpNxXvPOPZ-1" vertex="1">
                    <mxGeometry x="885" y="230" width="167.5" height="60" as="geometry"/>
                </mxCell>
                <mxCell id="pZlFu3ug4XG7J28i3lUR-17" value="&lt;b&gt;Нагреватель&lt;/b&gt;" style="text;html=1;align=center;verticalAlign=middle;resizable=0;points=[];autosize=1;strokeColor=none;fontSize=16;" parent="TUwz2oIyPuxpNxXvPOPZ-1" vertex="1">
                    <mxGeometry x="908.75" y="160" width="120" height="20" as="geometry"/>
                </mxCell>
                <mxCell id="pZlFu3ug4XG7J28i3lUR-31" style="edgeStyle=orthogonalEdgeStyle;rounded=0;orthogonalLoop=1;jettySize=auto;html=1;exitX=0;exitY=0.5;exitDx=0;exitDy=0;fontSize=32;" parent="TUwz2oIyPuxpNxXvPOPZ-1" source="pZlFu3ug4XG7J28i3lUR-18" edge="1">
                    <mxGeometry relative="1" as="geometry">
                        <mxPoint x="350" y="470" as="targetPoint"/>
                    </mxGeometry>
                </mxCell>
                <mxCell id="pZlFu3ug4XG7J28i3lUR-18" value="Включен" style="rounded=0;whiteSpace=wrap;html=1;fontSize=16;" parent="TUwz2oIyPuxpNxXvPOPZ-1" vertex="1">
                    <mxGeometry x="885" y="440" width="167.5" height="60" as="geometry"/>
                </mxCell>
                <mxCell id="pZlFu3ug4XG7J28i3lUR-19" style="edgeStyle=orthogonalEdgeStyle;rounded=0;orthogonalLoop=1;jettySize=auto;html=1;exitX=0.5;exitY=1;exitDx=0;exitDy=0;entryX=0.5;entryY=0;entryDx=0;entryDy=0;fontSize=16;startArrow=none;startFill=0;" parent="TUwz2oIyPuxpNxXvPOPZ-1" source="pZlFu3ug4XG7J28i3lUR-18" target="pZlFu3ug4XG7J28i3lUR-20" edge="1">
                    <mxGeometry relative="1" as="geometry">
                        <mxPoint x="968.75" y="740" as="sourcePoint"/>
                    </mxGeometry>
                </mxCell>
                <mxCell id="pZlFu3ug4XG7J28i3lUR-32" style="edgeStyle=orthogonalEdgeStyle;rounded=0;orthogonalLoop=1;jettySize=auto;html=1;exitX=0;exitY=0.5;exitDx=0;exitDy=0;fontSize=32;" parent="TUwz2oIyPuxpNxXvPOPZ-1" source="pZlFu3ug4XG7J28i3lUR-20" edge="1">
                    <mxGeometry relative="1" as="geometry">
                        <mxPoint x="350" y="610" as="targetPoint"/>
                        <Array as="points">
                            <mxPoint x="700" y="670"/>
                            <mxPoint x="700" y="610"/>
                        </Array>
                    </mxGeometry>
                </mxCell>
                <mxCell id="pZlFu3ug4XG7J28i3lUR-20" value="Выключен" style="rounded=0;whiteSpace=wrap;html=1;fontSize=16;" parent="TUwz2oIyPuxpNxXvPOPZ-1" vertex="1">
                    <mxGeometry x="885" y="640" width="167.5" height="60" as="geometry"/>
                </mxCell>
                <mxCell id="pZlFu3ug4XG7J28i3lUR-21" style="edgeStyle=orthogonalEdgeStyle;rounded=0;orthogonalLoop=1;jettySize=auto;html=1;exitX=0.5;exitY=1;exitDx=0;exitDy=0;entryX=0.5;entryY=0;entryDx=0;entryDy=0;fontSize=16;startArrow=none;startFill=0;" parent="TUwz2oIyPuxpNxXvPOPZ-1" source="pZlFu3ug4XG7J28i3lUR-22" target="pZlFu3ug4XG7J28i3lUR-24" edge="1">
                    <mxGeometry relative="1" as="geometry"/>
                </mxCell>
                <mxCell id="pZlFu3ug4XG7J28i3lUR-22" value="Выключен" style="rounded=0;whiteSpace=wrap;html=1;fontSize=16;" parent="TUwz2oIyPuxpNxXvPOPZ-1" vertex="1">
                    <mxGeometry x="1205" y="230" width="167.5" height="60" as="geometry"/>
                </mxCell>
                <mxCell id="pZlFu3ug4XG7J28i3lUR-23" value="&lt;b&gt;Датчик температуры&lt;/b&gt;" style="text;html=1;align=center;verticalAlign=middle;resizable=0;points=[];autosize=1;strokeColor=none;fontSize=16;" parent="TUwz2oIyPuxpNxXvPOPZ-1" vertex="1">
                    <mxGeometry x="1198.75" y="160" width="180" height="20" as="geometry"/>
                </mxCell>
                <mxCell id="pZlFu3ug4XG7J28i3lUR-24" value="Температура ниже требуемой" style="rounded=0;whiteSpace=wrap;html=1;fontSize=16;" parent="TUwz2oIyPuxpNxXvPOPZ-1" vertex="1">
                    <mxGeometry x="1205" y="400" width="167.5" height="60" as="geometry"/>
                </mxCell>
                <mxCell id="pZlFu3ug4XG7J28i3lUR-25" style="edgeStyle=orthogonalEdgeStyle;rounded=0;orthogonalLoop=1;jettySize=auto;html=1;exitX=0.5;exitY=1;exitDx=0;exitDy=0;entryX=0.5;entryY=0;entryDx=0;entryDy=0;fontSize=16;startArrow=none;startFill=0;" parent="TUwz2oIyPuxpNxXvPOPZ-1" source="pZlFu3ug4XG7J28i3lUR-24" target="pZlFu3ug4XG7J28i3lUR-27" edge="1">
                    <mxGeometry relative="1" as="geometry">
                        <mxPoint x="1288.75" y="740" as="sourcePoint"/>
                    </mxGeometry>
                </mxCell>
                <mxCell id="pZlFu3ug4XG7J28i3lUR-26" style="edgeStyle=orthogonalEdgeStyle;rounded=0;orthogonalLoop=1;jettySize=auto;html=1;exitX=0.5;exitY=1;exitDx=0;exitDy=0;entryX=0.5;entryY=0;entryDx=0;entryDy=0;" parent="TUwz2oIyPuxpNxXvPOPZ-1" source="pZlFu3ug4XG7J28i3lUR-27" target="pZlFu3ug4XG7J28i3lUR-28" edge="1">
                    <mxGeometry relative="1" as="geometry"/>
                </mxCell>
                <mxCell id="pZlFu3ug4XG7J28i3lUR-27" value="Необходимая температура" style="rounded=0;whiteSpace=wrap;html=1;fontSize=16;" parent="TUwz2oIyPuxpNxXvPOPZ-1" vertex="1">
                    <mxGeometry x="1205" y="540" width="167.5" height="60" as="geometry"/>
                </mxCell>
                <mxCell id="pZlFu3ug4XG7J28i3lUR-33" style="edgeStyle=orthogonalEdgeStyle;rounded=0;orthogonalLoop=1;jettySize=auto;html=1;exitX=0;exitY=0.5;exitDx=0;exitDy=0;fontSize=32;" parent="TUwz2oIyPuxpNxXvPOPZ-1" source="pZlFu3ug4XG7J28i3lUR-28" edge="1">
                    <mxGeometry relative="1" as="geometry">
                        <mxPoint x="350" y="750" as="targetPoint"/>
                        <Array as="points">
                            <mxPoint x="1160" y="670"/>
                            <mxPoint x="1160" y="750"/>
                            <mxPoint x="350" y="750"/>
                        </Array>
                    </mxGeometry>
                </mxCell>
                <mxCell id="pZlFu3ug4XG7J28i3lUR-28" value="Выключен" style="rounded=0;whiteSpace=wrap;html=1;fontSize=16;" parent="TUwz2oIyPuxpNxXvPOPZ-1" vertex="1">
                    <mxGeometry x="1205" y="640" width="167.5" height="60" as="geometry"/>
                </mxCell>
                <mxCell id="pZlFu3ug4XG7J28i3lUR-29" style="edgeStyle=orthogonalEdgeStyle;rounded=0;orthogonalLoop=1;jettySize=auto;html=1;exitX=0.5;exitY=1;exitDx=0;exitDy=0;entryX=0.5;entryY=0;entryDx=0;entryDy=0;" parent="TUwz2oIyPuxpNxXvPOPZ-1" source="pZlFu3ug4XG7J28i3lUR-30" target="pZlFu3ug4XG7J28i3lUR-5" edge="1">
                    <mxGeometry relative="1" as="geometry"/>
                </mxCell>
                <mxCell id="pZlFu3ug4XG7J28i3lUR-30" value="Выключен" style="rounded=0;whiteSpace=wrap;html=1;fontSize=16;" parent="TUwz2oIyPuxpNxXvPOPZ-1" vertex="1">
                    <mxGeometry x="260" y="210" width="167.5" height="60" as="geometry"/>
                </mxCell>
            </root>
        </mxGraphModel>
    </diagram>
</mxfile>